<?xml version="1.0" encoding="utf-8"?>
<!-- Generator: Adobe Illustrator 21.0.0, SVG Export Plug-In . SVG Version: 6.00 Build 0)  -->
<svg version="1.1" id="Ebene_1" xmlns="http://www.w3.org/2000/svg" xmlns:xlink="http://www.w3.org/1999/xlink" x="0px" y="0px"
	 viewBox="0 0 631 253" style="enable-background:new 0 0 631 253;" xml:space="preserve">
<style type="text/css">
	.st0{fill:#004B8D;}
</style>
<path class="st0" d="M580.9,99.8c-10.3-11.8-23.1-17.7-36-17.6c-12.9-0.1-25.8,5.8-36,17.6c-13.3,15.4-18.5,33.5-18.1,54.6
	c-0.1,13.5,2.5,27.4,9.4,40.3c9.1,17,26.9,25.4,44.8,25.3c17.8,0.2,35.7-8.2,44.8-25.3c6.9-13,9.5-26.9,9.4-40.3
	C599.4,133.3,594.2,115.2,580.9,99.8z M573.5,183.6c-6.6,10.9-16,17.2-28.6,17c-12.6,0.2-22-6.1-28.6-17
	c-12.3-20.2-9.4-53.2,6.2-70.9c6.7-7.6,14.5-11.3,22.4-11.2c7.9-0.1,15.7,3.7,22.4,11.2C582.9,130.4,585.7,163.5,573.5,183.6z"/>
<path class="st0" d="M456.5,200.6c-19.5,3.4-34.9-5.2-41.6-22.9c-5.6-14.8-7-30.1-4-45.7c4.4-22.7,16.7-32.2,39.7-30.8
	c8.9,0.5,17.8,1.5,26.9,2.3c0-6.4,0-11.7,0-19.1c-11.9-0.8-23.7-2.4-35.3-2c-19.7,0.6-34.8,9.5-43.3,27.9c-10,21.9-10,44.6-3.4,67.3
	c5.4,18.6,16,33.5,35.3,39.8c17.9,5.8,37.1,0.6,54.2-5.2v-19.3C481.5,193.9,463.5,199.3,456.5,200.6z"/>
<path class="st0" d="M60.3,201.2c-7.4,0-9.6-2.2-9.6-9.4c0-8.8,0-39.9,0-46.1c0,0,12.8,0.8,22.8,0.8c26.1,0,54-18.9,55.8-50.1
	C131,66.7,112.7,48,90.2,43.3c-18.8-3.9-38-0.3-57.3,1.2c0,0,0,102,0,151.1c0,12.5,10.7,23.2,23.3,23.4c9,0.1,35,0,35,0
	c0-6.5,0-12,0-17.8C80.6,201.2,70.5,201.2,60.3,201.2z M50.6,60.5c12.3-0.7,24.8-1.6,35.7,0c12,1.8,20.8,9.7,23.6,22.2
	c3,13.3,0.8,25.6-9.5,35.4c-8,7.7-14.8,10.2-26.1,10.7c-8.4,0.3-15.5-0.1-23.8-0.8C50.6,107,50.6,82.8,50.6,60.5z"/>
<rect x="311.5" y="33" class="st0" width="17.6" height="186.1"/>
<rect x="357.7" y="83" class="st0" width="17.6" height="136.1"/>
<rect x="267.4" y="83" class="st0" width="17.6" height="136.1"/>
<path class="st0" d="M201.5,80.3h-2.7c-12.8,0-24.5,5.3-32.8,13.9v-0.4c0-20.8,0-41,0-60.8c-6.2,0-11.8,0-17.8,0
	c0,0,0,157.8,0,159.3c0,6-2.5,8.5-8.5,8.6c-8.3,0.2-16.7,0.1-25,0.1c-2.3,0-4.6,0-7.2,0c0,5.9,0,12,0,17.9c11.5,0,22.5,0.1,33.5,0
	c15.1-0.1,24.9-10,24.9-25.1c0-19.2,0-38.3,0-57.5c0-0.4,0-3.2,0-3.2c0-18.1,18.4-34.7,32.8-34.7h2.7c15.4,0,27.9,12.5,27.9,27.9
	V219h18v-92.8C247.3,100.9,226.8,80.3,201.5,80.3z"/>
</svg>
